<svg xmlns="http://www.w3.org/2000/svg" xmlns:xlink="http://www.w3.org/1999/xlink" width="500" zoomAndPan="magnify" viewBox="0 0 375 374.999991" height="500" preserveAspectRatio="xMidYMid meet" version="1.0"><defs><g/><clipPath id="4d44105b54"><path d="M 139.351562 101.433594 L 233.363281 101.433594 L 233.363281 201.828125 L 139.351562 201.828125 Z M 139.351562 101.433594 " clip-rule="nonzero"/></clipPath><clipPath id="9e2309ae7f"><path d="M 232.433594 152.867188 L 232.394531 150.394531 L 231.703125 104.695312 L 231.683594 103.277344 L 230.265625 103.257812 L 187.476562 102.40625 L 185.039062 102.347656 L 142.609375 101.496094 L 139.351562 101.433594 L 139.410156 104.695312 L 140.261719 150.394531 L 140.304688 152.867188 L 141.171875 198.890625 L 141.195312 200.308594 L 142.609375 200.328125 L 185.039062 201.015625 L 187.476562 201.058594 L 233.183594 201.808594 Z M 228.101562 150.394531 L 228.058594 152.867188 L 227.410156 196.078125 L 187.476562 196.722656 L 185.039062 196.765625 L 144.070312 197.433594 L 144.898438 152.867188 L 144.941406 150.394531 L 145.730469 107.832031 L 185.039062 107.042969 L 187.476562 107.003906 L 228.769531 106.171875 Z M 228.101562 150.394531 " clip-rule="nonzero"/></clipPath></defs><rect x="-37.5" width="450" fill="#ffffff" y="-37.499999" height="449.999989" fill-opacity="1"/><rect x="-37.5" width="450" fill="#990000" y="-37.499999" height="449.999989" fill-opacity="1"/><g clip-path="url(#4d44105b54)"><g clip-path="url(#9e2309ae7f)"><path fill="#ffffff" d="M 139.351562 101.433594 L 233.164062 101.433594 L 233.164062 201.828125 L 139.351562 201.828125 Z M 139.351562 101.433594 " fill-opacity="1" fill-rule="nonzero"/></g></g><g fill="#ffffff" fill-opacity="1"><g transform="translate(141.52214, 188.980536)"><g><path d="M 69.875 -51.515625 C 69.875 -46.953125 68.265625 -43.019531 65.046875 -39.71875 C 61.828125 -36.425781 57.128906 -34.054688 50.953125 -32.609375 C 54.285156 -31.691406 56.804688 -30.195312 58.515625 -28.125 C 60.234375 -26.0625 61.09375 -23.691406 61.09375 -21.015625 C 61.09375 -16.773438 59.765625 -13.097656 57.109375 -9.984375 C 54.453125 -6.867188 50.570312 -4.460938 45.46875 -2.765625 C 40.375 -1.078125 34.234375 -0.234375 27.046875 -0.234375 C 24.359375 -0.234375 22.210938 -0.316406 20.609375 -0.484375 C 20.554688 1.015625 19.910156 2.140625 18.671875 2.890625 C 17.441406 3.648438 15.859375 4.03125 13.921875 4.03125 C 11.992188 4.03125 10.664062 3.597656 9.9375 2.734375 C 9.21875 1.878906 8.910156 0.617188 9.015625 -1.046875 C 9.492188 -8.554688 10.429688 -16.429688 11.828125 -24.671875 C 13.222656 -32.910156 14.992188 -40.867188 17.140625 -48.546875 C 17.515625 -49.878906 18.265625 -50.8125 19.390625 -51.34375 C 20.523438 -51.882812 22.003906 -52.15625 23.828125 -52.15625 C 27.097656 -52.15625 28.734375 -51.242188 28.734375 -49.421875 C 28.734375 -48.671875 28.570312 -47.8125 28.25 -46.84375 C 26.851562 -42.664062 25.457031 -36.992188 24.0625 -29.828125 C 22.664062 -22.660156 21.675781 -15.832031 21.09375 -9.34375 C 23.664062 -9.125 25.757812 -9.015625 27.375 -9.015625 C 34.882812 -9.015625 40.394531 -10.097656 43.90625 -12.265625 C 47.425781 -14.441406 49.1875 -17.222656 49.1875 -20.609375 C 49.1875 -22.972656 48.175781 -24.957031 46.15625 -26.5625 C 44.144531 -28.175781 40.78125 -29.0625 36.0625 -29.21875 C 34.988281 -29.269531 34.238281 -29.535156 33.8125 -30.015625 C 33.382812 -30.503906 33.171875 -31.285156 33.171875 -32.359375 C 33.171875 -33.921875 33.488281 -35.179688 34.125 -36.140625 C 34.769531 -37.109375 35.953125 -37.617188 37.671875 -37.671875 C 41.484375 -37.773438 44.929688 -38.335938 48.015625 -39.359375 C 51.097656 -40.378906 53.523438 -41.816406 55.296875 -43.671875 C 57.066406 -45.523438 57.953125 -47.6875 57.953125 -50.15625 C 57.953125 -53.269531 56.421875 -55.722656 53.359375 -57.515625 C 50.304688 -59.316406 45.613281 -60.21875 39.28125 -60.21875 C 33.539062 -60.21875 27.988281 -59.476562 22.625 -58 C 17.257812 -56.519531 12.695312 -54.65625 8.9375 -52.40625 C 7.21875 -51.382812 5.769531 -50.875 4.59375 -50.875 C 3.625 -50.875 2.882812 -51.207031 2.375 -51.875 C 1.863281 -52.550781 1.609375 -53.398438 1.609375 -54.421875 C 1.609375 -55.765625 1.890625 -56.914062 2.453125 -57.875 C 3.015625 -58.84375 4.367188 -59.945312 6.515625 -61.1875 C 11.023438 -63.757812 16.3125 -65.769531 22.375 -67.21875 C 28.4375 -68.664062 34.632812 -69.390625 40.96875 -69.390625 C 50.6875 -69.390625 57.929688 -67.75 62.703125 -64.46875 C 67.484375 -61.195312 69.875 -56.878906 69.875 -51.515625 Z M 69.875 -51.515625 "/></g></g></g><g fill="#ffffff" fill-opacity="1"><g transform="translate(69.952828, 251.294587)"><g><path d="M 2.46875 -24.28125 L 9.84375 -24.28125 C 11.84375 -24.28125 13.273438 -23.757812 14.140625 -22.71875 C 15.015625 -21.6875 15.453125 -20.1875 15.453125 -18.21875 C 15.453125 -16.539062 15.164062 -15.238281 14.59375 -14.3125 C 14.019531 -13.382812 13.109375 -12.78125 11.859375 -12.5 L 11.859375 -12.359375 C 13.316406 -12.046875 14.316406 -11.390625 14.859375 -10.390625 C 15.398438 -9.390625 15.671875 -8.054688 15.671875 -6.390625 C 15.671875 -4.410156 15.242188 -2.847656 14.390625 -1.703125 C 13.546875 -0.566406 11.984375 0 9.703125 0 L 2.46875 0 Z M 9.109375 -13.484375 C 10.359375 -13.484375 11.285156 -13.820312 11.890625 -14.5 C 12.503906 -15.1875 12.8125 -16.257812 12.8125 -17.71875 C 12.8125 -18.78125 12.703125 -19.609375 12.484375 -20.203125 C 12.273438 -20.804688 11.90625 -21.25 11.375 -21.53125 C 10.851562 -21.8125 10.097656 -21.953125 9.109375 -21.953125 L 5.078125 -21.953125 L 5.078125 -13.484375 Z M 9.21875 -2.328125 C 10.675781 -2.328125 11.664062 -2.65625 12.1875 -3.3125 C 12.71875 -3.976562 12.984375 -5.109375 12.984375 -6.703125 C 12.984375 -8.328125 12.703125 -9.472656 12.140625 -10.140625 C 11.578125 -10.816406 10.601562 -11.15625 9.21875 -11.15625 L 5.078125 -11.15625 L 5.078125 -2.328125 Z M 9.21875 -2.328125 "/></g></g></g><g fill="#ffffff" fill-opacity="1"><g transform="translate(95.43891, 251.294587)"><g><path d="M 2.46875 0 L 2.46875 -24.28125 L 13.9375 -24.28125 L 13.9375 -21.953125 L 5.125 -21.953125 L 5.125 -13.453125 L 12.78125 -13.453125 L 12.78125 -11.125 L 5.125 -11.125 L 5.125 -2.328125 L 13.9375 -2.328125 L 13.9375 0 Z M 2.46875 0 "/></g></g></g><g fill="#ffffff" fill-opacity="1"><g transform="translate(118.842488, 251.294587)"><g><path d="M 7.9375 0.28125 C 5.75 0.28125 3.738281 0.128906 1.90625 -0.171875 L 1.90625 -2.46875 C 2.726562 -2.351562 3.632812 -2.253906 4.625 -2.171875 C 5.613281 -2.085938 6.445312 -2.046875 7.125 -2.046875 C 8.070312 -2.046875 8.820312 -2.109375 9.375 -2.234375 C 9.925781 -2.367188 10.378906 -2.597656 10.734375 -2.921875 C 11.054688 -3.234375 11.269531 -3.679688 11.375 -4.265625 C 11.488281 -4.859375 11.546875 -5.648438 11.546875 -6.640625 C 11.546875 -7.929688 11.5 -8.832031 11.40625 -9.34375 C 11.3125 -9.863281 11.09375 -10.234375 10.75 -10.453125 C 10.40625 -10.679688 9.800781 -10.867188 8.9375 -11.015625 L 4.828125 -11.640625 C 3.847656 -11.804688 3.109375 -12.140625 2.609375 -12.640625 C 2.117188 -13.148438 1.796875 -13.804688 1.640625 -14.609375 C 1.484375 -15.410156 1.40625 -16.484375 1.40625 -17.828125 C 1.40625 -20.273438 1.921875 -22.007812 2.953125 -23.03125 C 3.992188 -24.050781 5.65625 -24.5625 7.9375 -24.5625 C 10.125 -24.5625 11.914062 -24.375 13.3125 -24 L 13.3125 -21.8125 C 11.726562 -22.09375 10.140625 -22.234375 8.546875 -22.234375 C 7.535156 -22.234375 6.734375 -22.144531 6.140625 -21.96875 C 5.554688 -21.789062 5.109375 -21.523438 4.796875 -21.171875 C 4.492188 -20.828125 4.296875 -20.394531 4.203125 -19.875 C 4.109375 -19.351562 4.0625 -18.691406 4.0625 -17.890625 C 4.0625 -16.804688 4.109375 -16.023438 4.203125 -15.546875 C 4.296875 -15.066406 4.484375 -14.734375 4.765625 -14.546875 C 5.046875 -14.359375 5.515625 -14.203125 6.171875 -14.078125 L 10.125 -13.453125 C 11.113281 -13.285156 11.890625 -13.035156 12.453125 -12.703125 C 13.023438 -12.378906 13.460938 -11.816406 13.765625 -11.015625 C 14.046875 -10.328125 14.1875 -8.972656 14.1875 -6.953125 C 14.1875 -5.140625 13.992188 -3.710938 13.609375 -2.671875 C 13.222656 -1.640625 12.578125 -0.890625 11.671875 -0.421875 C 10.765625 0.046875 9.519531 0.28125 7.9375 0.28125 Z M 7.9375 0.28125 "/></g></g></g><g fill="#ffffff" fill-opacity="1"><g transform="translate(142.599036, 251.294587)"><g><path d="M 5.96875 0 L 5.96875 -21.890625 L 0.5625 -21.890625 L 0.5625 -24.28125 L 14.015625 -24.28125 L 14.015625 -21.890625 L 8.609375 -21.890625 L 8.609375 0 Z M 5.96875 0 "/></g></g></g><g fill="#ffffff" fill-opacity="1"><g transform="translate(165.296674, 251.294587)"><g/></g></g><g fill="#ffffff" fill-opacity="1"><g transform="translate(180.193722, 251.294587)"><g><path d="M 5.96875 0 L 5.96875 -21.890625 L 0.5625 -21.890625 L 0.5625 -24.28125 L 14.015625 -24.28125 L 14.015625 -21.890625 L 8.609375 -21.890625 L 8.609375 0 Z M 5.96875 0 "/></g></g></g><g fill="#ffffff" fill-opacity="1"><g transform="translate(202.89136, 251.294587)"><g><path d="M 2.578125 0 L 2.578125 -24.28125 L 5.21875 -24.28125 L 5.21875 0 Z M 2.578125 0 "/></g></g></g><g fill="#ffffff" fill-opacity="1"><g transform="translate(218.77672, 251.294587)"><g><path d="M 12.984375 -0.140625 C 12.472656 -0.0234375 11.84375 0.0703125 11.09375 0.15625 C 10.351562 0.238281 9.65625 0.28125 9 0.28125 C 6.882812 0.28125 5.335938 -0.0351562 4.359375 -0.671875 C 3.378906 -1.304688 2.71875 -2.460938 2.375 -4.140625 C 2.039062 -5.828125 1.875 -8.492188 1.875 -12.140625 C 1.875 -15.765625 2.039062 -18.414062 2.375 -20.09375 C 2.71875 -21.78125 3.378906 -22.945312 4.359375 -23.59375 C 5.335938 -24.238281 6.882812 -24.5625 9 -24.5625 C 9.65625 -24.5625 10.347656 -24.515625 11.078125 -24.421875 C 11.804688 -24.328125 12.410156 -24.210938 12.890625 -24.078125 L 12.890625 -21.921875 C 11.566406 -22.128906 10.457031 -22.234375 9.5625 -22.234375 C 7.9375 -22.234375 6.796875 -22.019531 6.140625 -21.59375 C 5.484375 -21.175781 5.050781 -20.304688 4.84375 -18.984375 C 4.644531 -17.671875 4.546875 -15.390625 4.546875 -12.140625 C 4.546875 -8.890625 4.644531 -6.601562 4.84375 -5.28125 C 5.050781 -3.96875 5.484375 -3.097656 6.140625 -2.671875 C 6.796875 -2.253906 7.9375 -2.046875 9.5625 -2.046875 C 10.738281 -2.046875 11.878906 -2.148438 12.984375 -2.359375 Z M 12.984375 -0.140625 "/></g></g></g><g fill="#ffffff" fill-opacity="1"><g transform="translate(241.015507, 251.294587)"><g><path d="M 13.546875 0 L 7.828125 -11.15625 L 5.125 -11.15625 L 5.125 0 L 2.46875 0 L 2.46875 -24.28125 L 5.125 -24.28125 L 5.125 -13.484375 L 7.828125 -13.484375 L 13.546875 -24.28125 L 16.40625 -24.28125 L 10.03125 -12.453125 L 16.484375 0 Z M 13.546875 0 "/></g></g></g><g fill="#ffffff" fill-opacity="1"><g transform="translate(266.113337, 251.294587)"><g><path d="M 2.46875 0 L 2.46875 -24.28125 L 13.9375 -24.28125 L 13.9375 -21.953125 L 5.125 -21.953125 L 5.125 -13.453125 L 12.78125 -13.453125 L 12.78125 -11.125 L 5.125 -11.125 L 5.125 -2.328125 L 13.9375 -2.328125 L 13.9375 0 Z M 2.46875 0 "/></g></g></g><g fill="#ffffff" fill-opacity="1"><g transform="translate(289.516915, 251.294587)"><g><path d="M 5.96875 0 L 5.96875 -21.890625 L 0.5625 -21.890625 L 0.5625 -24.28125 L 14.015625 -24.28125 L 14.015625 -21.890625 L 8.609375 -21.890625 L 8.609375 0 Z M 5.96875 0 "/></g></g></g><g fill="#ffffff" fill-opacity="1"><g transform="translate(123.716738, 276.429092)"><g><path d="M 5.390625 0 L 2.0625 -7.453125 L 2 -7.453125 L 2 0 L 0.984375 0 L 0.984375 -9.6875 L 2.09375 -9.6875 L 5.375 -2.359375 L 5.4375 -2.359375 L 5.4375 -9.6875 L 6.453125 -9.6875 L 6.453125 0 Z M 5.390625 0 "/></g></g></g><g fill="#ffffff" fill-opacity="1"><g transform="translate(134.388072, 276.429092)"><g><path d="M 3.640625 0.109375 C 2.722656 0.109375 2.066406 -0.015625 1.671875 -0.265625 C 1.273438 -0.515625 1.019531 -0.960938 0.90625 -1.609375 C 0.800781 -2.253906 0.75 -3.332031 0.75 -4.84375 C 0.75 -6.351562 0.800781 -7.425781 0.90625 -8.0625 C 1.019531 -8.707031 1.273438 -9.15625 1.671875 -9.40625 C 2.066406 -9.664062 2.722656 -9.796875 3.640625 -9.796875 C 4.566406 -9.796875 5.222656 -9.664062 5.609375 -9.40625 C 6.003906 -9.15625 6.257812 -8.707031 6.375 -8.0625 C 6.488281 -7.425781 6.546875 -6.351562 6.546875 -4.84375 C 6.546875 -3.332031 6.488281 -2.253906 6.375 -1.609375 C 6.257812 -0.960938 6.003906 -0.515625 5.609375 -0.265625 C 5.222656 -0.015625 4.566406 0.109375 3.640625 0.109375 Z M 3.640625 -0.8125 C 4.242188 -0.8125 4.660156 -0.878906 4.890625 -1.015625 C 5.128906 -1.160156 5.285156 -1.492188 5.359375 -2.015625 C 5.429688 -2.546875 5.46875 -3.488281 5.46875 -4.84375 C 5.46875 -6.195312 5.429688 -7.132812 5.359375 -7.65625 C 5.285156 -8.1875 5.128906 -8.519531 4.890625 -8.65625 C 4.660156 -8.800781 4.242188 -8.875 3.640625 -8.875 C 3.046875 -8.875 2.628906 -8.800781 2.390625 -8.65625 C 2.160156 -8.519531 2.003906 -8.1875 1.921875 -7.65625 C 1.847656 -7.132812 1.8125 -6.195312 1.8125 -4.84375 C 1.8125 -3.488281 1.847656 -2.546875 1.921875 -2.015625 C 2.003906 -1.492188 2.160156 -1.160156 2.390625 -1.015625 C 2.628906 -0.878906 3.046875 -0.8125 3.640625 -0.8125 Z M 3.640625 -0.8125 "/></g></g></g><g fill="#ffffff" fill-opacity="1"><g transform="translate(144.918666, 276.429092)"><g/></g></g><g fill="#ffffff" fill-opacity="1"><g transform="translate(150.861049, 276.429092)"><g><path d="M 5.1875 -0.0625 C 4.976562 -0.0078125 4.722656 0.03125 4.421875 0.0625 C 4.128906 0.09375 3.851562 0.109375 3.59375 0.109375 C 2.75 0.109375 2.128906 -0.015625 1.734375 -0.265625 C 1.347656 -0.515625 1.085938 -0.972656 0.953125 -1.640625 C 0.816406 -2.316406 0.75 -3.382812 0.75 -4.84375 C 0.75 -6.289062 0.816406 -7.347656 0.953125 -8.015625 C 1.085938 -8.691406 1.347656 -9.15625 1.734375 -9.40625 C 2.128906 -9.664062 2.75 -9.796875 3.59375 -9.796875 C 3.851562 -9.796875 4.128906 -9.773438 4.421875 -9.734375 C 4.710938 -9.703125 4.953125 -9.65625 5.140625 -9.59375 L 5.140625 -8.75 C 4.609375 -8.832031 4.164062 -8.875 3.8125 -8.875 C 3.164062 -8.875 2.710938 -8.785156 2.453125 -8.609375 C 2.191406 -8.441406 2.019531 -8.09375 1.9375 -7.5625 C 1.851562 -7.039062 1.8125 -6.132812 1.8125 -4.84375 C 1.8125 -3.550781 1.851562 -2.640625 1.9375 -2.109375 C 2.019531 -1.585938 2.191406 -1.238281 2.453125 -1.0625 C 2.710938 -0.894531 3.164062 -0.8125 3.8125 -0.8125 C 4.28125 -0.8125 4.738281 -0.851562 5.1875 -0.9375 Z M 5.1875 -0.0625 "/></g></g></g><g fill="#ffffff" fill-opacity="1"><g transform="translate(159.730878, 276.429092)"><g><path d="M 3.640625 0.109375 C 2.722656 0.109375 2.066406 -0.015625 1.671875 -0.265625 C 1.273438 -0.515625 1.019531 -0.960938 0.90625 -1.609375 C 0.800781 -2.253906 0.75 -3.332031 0.75 -4.84375 C 0.75 -6.351562 0.800781 -7.425781 0.90625 -8.0625 C 1.019531 -8.707031 1.273438 -9.15625 1.671875 -9.40625 C 2.066406 -9.664062 2.722656 -9.796875 3.640625 -9.796875 C 4.566406 -9.796875 5.222656 -9.664062 5.609375 -9.40625 C 6.003906 -9.15625 6.257812 -8.707031 6.375 -8.0625 C 6.488281 -7.425781 6.546875 -6.351562 6.546875 -4.84375 C 6.546875 -3.332031 6.488281 -2.253906 6.375 -1.609375 C 6.257812 -0.960938 6.003906 -0.515625 5.609375 -0.265625 C 5.222656 -0.015625 4.566406 0.109375 3.640625 0.109375 Z M 3.640625 -0.8125 C 4.242188 -0.8125 4.660156 -0.878906 4.890625 -1.015625 C 5.128906 -1.160156 5.285156 -1.492188 5.359375 -2.015625 C 5.429688 -2.546875 5.46875 -3.488281 5.46875 -4.84375 C 5.46875 -6.195312 5.429688 -7.132812 5.359375 -7.65625 C 5.285156 -8.1875 5.128906 -8.519531 4.890625 -8.65625 C 4.660156 -8.800781 4.242188 -8.875 3.640625 -8.875 C 3.046875 -8.875 2.628906 -8.800781 2.390625 -8.65625 C 2.160156 -8.519531 2.003906 -8.1875 1.921875 -7.65625 C 1.847656 -7.132812 1.8125 -6.195312 1.8125 -4.84375 C 1.8125 -3.488281 1.847656 -2.546875 1.921875 -2.015625 C 2.003906 -1.492188 2.160156 -1.160156 2.390625 -1.015625 C 2.628906 -0.878906 3.046875 -0.8125 3.640625 -0.8125 Z M 3.640625 -0.8125 "/></g></g></g><g fill="#ffffff" fill-opacity="1"><g transform="translate(170.261473, 276.429092)"><g><path d="M 0.984375 -9.6875 L 3.296875 -9.6875 C 4.234375 -9.6875 4.898438 -9.5625 5.296875 -9.3125 C 5.703125 -9.070312 5.960938 -8.632812 6.078125 -8 C 6.191406 -7.363281 6.25 -6.3125 6.25 -4.84375 C 6.25 -3.363281 6.191406 -2.304688 6.078125 -1.671875 C 5.960938 -1.046875 5.703125 -0.609375 5.296875 -0.359375 C 4.898438 -0.117188 4.234375 0 3.296875 0 L 0.984375 0 Z M 3.25 -0.921875 C 3.894531 -0.921875 4.335938 -0.988281 4.578125 -1.125 C 4.816406 -1.269531 4.976562 -1.59375 5.0625 -2.09375 C 5.144531 -2.601562 5.1875 -3.519531 5.1875 -4.84375 C 5.1875 -6.15625 5.144531 -7.066406 5.0625 -7.578125 C 4.976562 -8.085938 4.8125 -8.410156 4.5625 -8.546875 C 4.320312 -8.679688 3.882812 -8.75 3.25 -8.75 L 2.03125 -8.75 L 2.03125 -0.921875 Z M 3.25 -0.921875 "/></g></g></g><g fill="#ffffff" fill-opacity="1"><g transform="translate(180.49651, 276.429092)"><g><path d="M 0.984375 0 L 0.984375 -9.6875 L 5.5625 -9.6875 L 5.5625 -8.75 L 2.046875 -8.75 L 2.046875 -5.359375 L 5.09375 -5.359375 L 5.09375 -4.4375 L 2.046875 -4.4375 L 2.046875 -0.921875 L 5.5625 -0.921875 L 5.5625 0 Z M 0.984375 0 "/></g></g></g><g fill="#ffffff" fill-opacity="1"><g transform="translate(189.830797, 276.429092)"><g/></g></g><g fill="#ffffff" fill-opacity="1"><g transform="translate(195.773181, 276.429092)"><g><path d="M 5.390625 0 L 2.0625 -7.453125 L 2 -7.453125 L 2 0 L 0.984375 0 L 0.984375 -9.6875 L 2.09375 -9.6875 L 5.375 -2.359375 L 5.4375 -2.359375 L 5.4375 -9.6875 L 6.453125 -9.6875 L 6.453125 0 Z M 5.390625 0 "/></g></g></g><g fill="#ffffff" fill-opacity="1"><g transform="translate(206.444516, 276.429092)"><g><path d="M 3.640625 0.109375 C 2.722656 0.109375 2.066406 -0.015625 1.671875 -0.265625 C 1.273438 -0.515625 1.019531 -0.960938 0.90625 -1.609375 C 0.800781 -2.253906 0.75 -3.332031 0.75 -4.84375 C 0.75 -6.351562 0.800781 -7.425781 0.90625 -8.0625 C 1.019531 -8.707031 1.273438 -9.15625 1.671875 -9.40625 C 2.066406 -9.664062 2.722656 -9.796875 3.640625 -9.796875 C 4.566406 -9.796875 5.222656 -9.664062 5.609375 -9.40625 C 6.003906 -9.15625 6.257812 -8.707031 6.375 -8.0625 C 6.488281 -7.425781 6.546875 -6.351562 6.546875 -4.84375 C 6.546875 -3.332031 6.488281 -2.253906 6.375 -1.609375 C 6.257812 -0.960938 6.003906 -0.515625 5.609375 -0.265625 C 5.222656 -0.015625 4.566406 0.109375 3.640625 0.109375 Z M 3.640625 -0.8125 C 4.242188 -0.8125 4.660156 -0.878906 4.890625 -1.015625 C 5.128906 -1.160156 5.285156 -1.492188 5.359375 -2.015625 C 5.429688 -2.546875 5.46875 -3.488281 5.46875 -4.84375 C 5.46875 -6.195312 5.429688 -7.132812 5.359375 -7.65625 C 5.285156 -8.1875 5.128906 -8.519531 4.890625 -8.65625 C 4.660156 -8.800781 4.242188 -8.875 3.640625 -8.875 C 3.046875 -8.875 2.628906 -8.800781 2.390625 -8.65625 C 2.160156 -8.519531 2.003906 -8.1875 1.921875 -7.65625 C 1.847656 -7.132812 1.8125 -6.195312 1.8125 -4.84375 C 1.8125 -3.488281 1.847656 -2.546875 1.921875 -2.015625 C 2.003906 -1.492188 2.160156 -1.160156 2.390625 -1.015625 C 2.628906 -0.878906 3.046875 -0.8125 3.640625 -0.8125 Z M 3.640625 -0.8125 "/></g></g></g><g fill="#ffffff" fill-opacity="1"><g transform="translate(216.975111, 276.429092)"><g/></g></g><g fill="#ffffff" fill-opacity="1"><g transform="translate(222.917495, 276.429092)"><g><path d="M 0.984375 -9.6875 L 3.921875 -9.6875 C 4.722656 -9.6875 5.296875 -9.476562 5.640625 -9.0625 C 5.992188 -8.65625 6.171875 -8.054688 6.171875 -7.265625 C 6.171875 -6.597656 6.050781 -6.078125 5.8125 -5.703125 C 5.582031 -5.335938 5.222656 -5.097656 4.734375 -4.984375 L 4.734375 -4.921875 C 5.316406 -4.804688 5.710938 -4.546875 5.921875 -4.140625 C 6.140625 -3.742188 6.25 -3.210938 6.25 -2.546875 C 6.25 -1.753906 6.078125 -1.128906 5.734375 -0.671875 C 5.398438 -0.222656 4.78125 0 3.875 0 L 0.984375 0 Z M 3.625 -5.375 C 4.125 -5.375 4.492188 -5.507812 4.734375 -5.78125 C 4.984375 -6.050781 5.109375 -6.476562 5.109375 -7.0625 C 5.109375 -7.488281 5.066406 -7.820312 4.984375 -8.0625 C 4.898438 -8.300781 4.75 -8.472656 4.53125 -8.578125 C 4.320312 -8.691406 4.019531 -8.75 3.625 -8.75 L 2.03125 -8.75 L 2.03125 -5.375 Z M 3.671875 -0.921875 C 4.253906 -0.921875 4.648438 -1.050781 4.859375 -1.3125 C 5.078125 -1.582031 5.1875 -2.035156 5.1875 -2.671875 C 5.1875 -3.316406 5.070312 -3.773438 4.84375 -4.046875 C 4.613281 -4.316406 4.222656 -4.453125 3.671875 -4.453125 L 2.03125 -4.453125 L 2.03125 -0.921875 Z M 3.671875 -0.921875 "/></g></g></g><g fill="#ffffff" fill-opacity="1"><g transform="translate(233.082148, 276.429092)"><g><path d="M 6.328125 -9.6875 L 6.328125 -4.203125 C 6.328125 -2.953125 6.269531 -2.039062 6.15625 -1.46875 C 6.039062 -0.894531 5.796875 -0.488281 5.421875 -0.25 C 5.054688 -0.0078125 4.457031 0.109375 3.625 0.109375 C 2.78125 0.109375 2.171875 -0.0078125 1.796875 -0.25 C 1.421875 -0.488281 1.175781 -0.894531 1.0625 -1.46875 C 0.957031 -2.050781 0.90625 -2.960938 0.90625 -4.203125 L 0.90625 -9.6875 L 1.953125 -9.6875 L 1.953125 -3.734375 C 1.953125 -2.835938 1.984375 -2.203125 2.046875 -1.828125 C 2.117188 -1.453125 2.265625 -1.1875 2.484375 -1.03125 C 2.703125 -0.882812 3.082031 -0.8125 3.625 -0.8125 C 4.15625 -0.8125 4.53125 -0.882812 4.75 -1.03125 C 4.96875 -1.1875 5.109375 -1.453125 5.171875 -1.828125 C 5.234375 -2.203125 5.265625 -2.835938 5.265625 -3.734375 L 5.265625 -9.6875 Z M 6.328125 -9.6875 "/></g></g></g><g fill="#ffffff" fill-opacity="1"><g transform="translate(243.556444, 276.429092)"><g><path d="M 3.546875 -4.25 L 3.546875 -5.15625 L 6.015625 -5.15625 L 6.015625 -0.15625 C 5.679688 -0.0820312 5.300781 -0.0195312 4.875 0.03125 C 4.445312 0.0820312 4.070312 0.109375 3.75 0.109375 C 2.894531 0.109375 2.257812 -0.015625 1.84375 -0.265625 C 1.425781 -0.515625 1.140625 -0.976562 0.984375 -1.65625 C 0.828125 -2.34375 0.75 -3.40625 0.75 -4.84375 C 0.75 -6.257812 0.828125 -7.3125 0.984375 -8 C 1.140625 -8.6875 1.425781 -9.15625 1.84375 -9.40625 C 2.257812 -9.664062 2.898438 -9.796875 3.765625 -9.796875 C 4.140625 -9.796875 4.539062 -9.765625 4.96875 -9.703125 C 5.394531 -9.648438 5.734375 -9.59375 5.984375 -9.53125 L 5.984375 -8.65625 C 5.734375 -8.71875 5.425781 -8.769531 5.0625 -8.8125 C 4.695312 -8.851562 4.40625 -8.875 4.1875 -8.875 C 3.4375 -8.875 2.910156 -8.800781 2.609375 -8.65625 C 2.304688 -8.519531 2.097656 -8.179688 1.984375 -7.640625 C 1.867188 -7.109375 1.8125 -6.175781 1.8125 -4.84375 C 1.8125 -3.625 1.851562 -2.742188 1.9375 -2.203125 C 2.019531 -1.660156 2.191406 -1.289062 2.453125 -1.09375 C 2.722656 -0.894531 3.160156 -0.796875 3.765625 -0.796875 C 4.242188 -0.796875 4.648438 -0.835938 4.984375 -0.921875 L 4.984375 -4.25 Z M 3.546875 -4.25 "/></g></g></g></svg>