<svg xmlns="http://www.w3.org/2000/svg" xmlns:xlink="http://www.w3.org/1999/xlink" width="500" zoomAndPan="magnify" viewBox="0 0 375 374.999991" height="500" preserveAspectRatio="xMidYMid meet" version="1.0"><defs><g/><clipPath id="9c1932b279"><path d="M 57.351562 172.328125 L 316.363281 172.328125 L 316.363281 202.378906 L 57.351562 202.378906 Z M 57.351562 172.328125 " clip-rule="nonzero"/></clipPath></defs><rect x="-37.5" width="450" fill="#ffffff" y="-37.499999" height="449.999989" fill-opacity="1"/><rect x="-37.5" width="450" fill="#fafafa" y="-37.499999" height="449.999989" fill-opacity="1"/><g fill="#000000" fill-opacity="1"><g transform="translate(184.060993, 242.722733)"><g><path d="M 61.75 -2.734375 L 61.75 -112.203125 L 76.453125 -112.203125 C 81.703125 -112.203125 86.289062 -109.519531 90.21875 -104.15625 C 94.15625 -98.800781 96.753906 -91.507812 98.015625 -82.28125 L 101.609375 -82.28125 L 99.03125 -112.03125 C 98.914062 -113.96875 97.773438 -114.9375 95.609375 -114.9375 L 11.296875 -114.9375 C 9.128906 -114.9375 7.988281 -113.96875 7.875 -112.03125 L 5.296875 -82.28125 L 8.890625 -82.28125 C 10.148438 -91.507812 12.742188 -98.800781 16.671875 -104.15625 C 20.609375 -109.519531 25.203125 -112.203125 30.453125 -112.203125 L 45.15625 -112.203125 L 45.15625 -2.734375 L 30.453125 -2.734375 L 30.453125 0 L 76.453125 0 L 76.453125 -2.734375 Z M 61.75 -2.734375 "/></g></g></g><g fill="#000000" fill-opacity="1"><g transform="translate(78.680938, 245.249984)"><g><path d="M 91.21875 -89.65625 C 91.21875 -93.9375 90.234375 -97.785156 88.265625 -101.203125 C 86.296875 -104.617188 83.660156 -107.457031 80.359375 -109.71875 C 77.054688 -111.976562 73.257812 -113.71875 68.96875 -114.9375 C 64.6875 -116.15625 60.226562 -116.765625 55.59375 -116.765625 L 5.03125 -116.765625 L 5.03125 -113.984375 L 19.984375 -113.984375 L 19.984375 -2.78125 L 5.03125 -2.78125 L 5.03125 0 L 56.984375 0 C 69.035156 0 78.390625 -2.78125 85.046875 -8.34375 C 91.710938 -13.90625 95.046875 -21.609375 95.046875 -31.453125 C 95.046875 -36.546875 94.03125 -41.003906 92 -44.828125 C 89.96875 -48.648438 87.445312 -51.890625 84.4375 -54.546875 C 81.425781 -57.210938 78.097656 -59.269531 74.453125 -60.71875 C 70.804688 -62.164062 67.414062 -63.066406 64.28125 -63.421875 C 68.101562 -64.117188 71.664062 -65.128906 74.96875 -66.453125 C 78.269531 -67.785156 81.109375 -69.523438 83.484375 -71.671875 C 85.859375 -73.816406 87.738281 -76.363281 89.125 -79.3125 C 90.519531 -82.269531 91.21875 -85.71875 91.21875 -89.65625 Z M 36.828125 -64.46875 L 36.828125 -113.984375 L 55.59375 -113.984375 C 58.488281 -113.984375 61.09375 -113.601562 63.40625 -112.84375 C 65.726562 -112.09375 67.703125 -110.816406 69.328125 -109.015625 C 70.953125 -107.222656 72.222656 -104.847656 73.140625 -101.890625 C 74.066406 -98.941406 74.53125 -95.328125 74.53125 -91.046875 L 74.53125 -88.265625 C 74.53125 -83.628906 74.066406 -79.773438 73.140625 -76.703125 C 72.222656 -73.640625 70.953125 -71.207031 69.328125 -69.40625 C 67.703125 -67.613281 65.703125 -66.34375 63.328125 -65.59375 C 60.953125 -64.84375 58.375 -64.46875 55.59375 -64.46875 Z M 36.828125 -2.78125 L 36.828125 -61.6875 L 55.59375 -61.6875 C 63.59375 -61.6875 69.300781 -59.253906 72.71875 -54.390625 C 76.132812 -49.523438 77.84375 -42.570312 77.84375 -33.53125 L 77.84375 -29.359375 C 77.84375 -20.910156 76.21875 -14.367188 72.96875 -9.734375 C 69.726562 -5.097656 63.9375 -2.78125 55.59375 -2.78125 Z M 36.828125 -2.78125 "/></g></g></g><g clip-path="url(#9c1932b279)"><path fill="#fafafa" d="M 57.351562 172.328125 L 316.363281 172.328125 L 316.363281 202.378906 L 57.351562 202.378906 Z M 57.351562 172.328125 " fill-opacity="1" fill-rule="nonzero"/></g><g fill="#000000" fill-opacity="1"><g transform="translate(116.807549, 191.496863)"><g><path d="M 8.03125 -4.890625 C 8.570312 -4.722656 8.992188 -4.4375 9.296875 -4.03125 C 9.597656 -3.632812 9.75 -3.144531 9.75 -2.5625 C 9.75 -1.738281 9.425781 -1.101562 8.78125 -0.65625 C 8.144531 -0.21875 7.210938 0 5.984375 0 L 1.109375 0 L 1.109375 -9.421875 L 5.71875 -9.421875 C 6.863281 -9.421875 7.742188 -9.195312 8.359375 -8.75 C 8.972656 -8.3125 9.28125 -7.71875 9.28125 -6.96875 C 9.28125 -6.507812 9.171875 -6.097656 8.953125 -5.734375 C 8.734375 -5.378906 8.425781 -5.097656 8.03125 -4.890625 Z M 3.28125 -7.78125 L 3.28125 -5.5625 L 5.453125 -5.5625 C 5.984375 -5.5625 6.390625 -5.65625 6.671875 -5.84375 C 6.953125 -6.03125 7.09375 -6.304688 7.09375 -6.671875 C 7.09375 -7.035156 6.953125 -7.3125 6.671875 -7.5 C 6.390625 -7.6875 5.984375 -7.78125 5.453125 -7.78125 Z M 5.828125 -1.640625 C 6.398438 -1.640625 6.832031 -1.734375 7.125 -1.921875 C 7.414062 -2.109375 7.5625 -2.398438 7.5625 -2.796875 C 7.5625 -3.578125 6.984375 -3.96875 5.828125 -3.96875 L 3.28125 -3.96875 L 3.28125 -1.640625 Z M 5.828125 -1.640625 "/></g></g></g><g fill="#000000" fill-opacity="1"><g transform="translate(131.747422, 191.496863)"><g><path d="M 8.40625 -1.75 L 8.40625 0 L 1.109375 0 L 1.109375 -9.421875 L 8.234375 -9.421875 L 8.234375 -7.671875 L 3.28125 -7.671875 L 3.28125 -5.625 L 7.65625 -5.625 L 7.65625 -3.921875 L 3.28125 -3.921875 L 3.28125 -1.75 Z M 8.40625 -1.75 "/></g></g></g><g fill="#000000" fill-opacity="1"><g transform="translate(145.423271, 191.496863)"><g><path d="M 4.203125 0.15625 C 3.460938 0.15625 2.742188 0.0546875 2.046875 -0.140625 C 1.359375 -0.335938 0.800781 -0.597656 0.375 -0.921875 L 1.109375 -2.5625 C 1.515625 -2.269531 1.992188 -2.035156 2.546875 -1.859375 C 3.109375 -1.679688 3.664062 -1.59375 4.21875 -1.59375 C 4.84375 -1.59375 5.300781 -1.679688 5.59375 -1.859375 C 5.894531 -2.046875 6.046875 -2.289062 6.046875 -2.59375 C 6.046875 -2.820312 5.957031 -3.007812 5.78125 -3.15625 C 5.601562 -3.300781 5.375 -3.414062 5.09375 -3.5 C 4.820312 -3.59375 4.457031 -3.695312 4 -3.8125 C 3.28125 -3.976562 2.691406 -4.144531 2.234375 -4.3125 C 1.773438 -4.488281 1.378906 -4.765625 1.046875 -5.140625 C 0.722656 -5.515625 0.5625 -6.015625 0.5625 -6.640625 C 0.5625 -7.191406 0.707031 -7.6875 1 -8.125 C 1.300781 -8.570312 1.75 -8.925781 2.34375 -9.1875 C 2.9375 -9.445312 3.664062 -9.578125 4.53125 -9.578125 C 5.132812 -9.578125 5.722656 -9.503906 6.296875 -9.359375 C 6.867188 -9.210938 7.367188 -9.007812 7.796875 -8.75 L 7.125 -7.09375 C 6.257812 -7.582031 5.390625 -7.828125 4.515625 -7.828125 C 3.910156 -7.828125 3.460938 -7.726562 3.171875 -7.53125 C 2.878906 -7.332031 2.734375 -7.070312 2.734375 -6.75 C 2.734375 -6.425781 2.898438 -6.1875 3.234375 -6.03125 C 3.566406 -5.875 4.082031 -5.71875 4.78125 -5.5625 C 5.5 -5.394531 6.082031 -5.222656 6.53125 -5.046875 C 6.988281 -4.878906 7.378906 -4.613281 7.703125 -4.25 C 8.035156 -3.882812 8.203125 -3.390625 8.203125 -2.765625 C 8.203125 -2.222656 8.050781 -1.726562 7.75 -1.28125 C 7.457031 -0.84375 7.007812 -0.492188 6.40625 -0.234375 C 5.800781 0.0234375 5.066406 0.15625 4.203125 0.15625 Z M 4.203125 0.15625 "/></g></g></g><g fill="#000000" fill-opacity="1"><g transform="translate(158.655365, 191.496863)"><g><path d="M 3.0625 -7.640625 L 0.046875 -7.640625 L 0.046875 -9.421875 L 8.265625 -9.421875 L 8.265625 -7.640625 L 5.25 -7.640625 L 5.25 0 L 3.0625 0 Z M 3.0625 -7.640625 "/></g></g></g><g fill="#000000" fill-opacity="1"><g transform="translate(171.618523, 191.496863)"><g/></g></g><g fill="#000000" fill-opacity="1"><g transform="translate(180.076941, 191.496863)"><g><path d="M 3.0625 -7.640625 L 0.046875 -7.640625 L 0.046875 -9.421875 L 8.265625 -9.421875 L 8.265625 -7.640625 L 5.25 -7.640625 L 5.25 0 L 3.0625 0 Z M 3.0625 -7.640625 "/></g></g></g><g fill="#000000" fill-opacity="1"><g transform="translate(193.040102, 191.496863)"><g><path d="M 1.109375 -9.421875 L 3.296875 -9.421875 L 3.296875 0 L 1.109375 0 Z M 1.109375 -9.421875 "/></g></g></g><g fill="#000000" fill-opacity="1"><g transform="translate(202.103639, 191.496863)"><g><path d="M 5.625 0.15625 C 4.664062 0.15625 3.796875 -0.0507812 3.015625 -0.46875 C 2.242188 -0.882812 1.632812 -1.460938 1.1875 -2.203125 C 0.75 -2.941406 0.53125 -3.773438 0.53125 -4.703125 C 0.53125 -5.640625 0.75 -6.476562 1.1875 -7.21875 C 1.632812 -7.957031 2.242188 -8.535156 3.015625 -8.953125 C 3.796875 -9.367188 4.671875 -9.578125 5.640625 -9.578125 C 6.453125 -9.578125 7.1875 -9.429688 7.84375 -9.140625 C 8.507812 -8.859375 9.066406 -8.445312 9.515625 -7.90625 L 8.109375 -6.625 C 7.472656 -7.351562 6.6875 -7.71875 5.75 -7.71875 C 5.164062 -7.71875 4.644531 -7.585938 4.1875 -7.328125 C 3.726562 -7.078125 3.367188 -6.722656 3.109375 -6.265625 C 2.859375 -5.804688 2.734375 -5.285156 2.734375 -4.703125 C 2.734375 -4.117188 2.859375 -3.597656 3.109375 -3.140625 C 3.367188 -2.691406 3.726562 -2.335938 4.1875 -2.078125 C 4.644531 -1.816406 5.164062 -1.6875 5.75 -1.6875 C 6.6875 -1.6875 7.472656 -2.0625 8.109375 -2.8125 L 9.515625 -1.515625 C 9.066406 -0.972656 8.507812 -0.554688 7.84375 -0.265625 C 7.175781 0.015625 6.4375 0.15625 5.625 0.15625 Z M 5.625 0.15625 "/></g></g></g><g fill="#000000" fill-opacity="1"><g transform="translate(216.613211, 191.496863)"><g><path d="M 4.546875 -3.703125 L 3.28125 -2.375 L 3.28125 0 L 1.109375 0 L 1.109375 -9.421875 L 3.28125 -9.421875 L 3.28125 -5.015625 L 7.453125 -9.421875 L 9.875 -9.421875 L 5.96875 -5.21875 L 10.109375 0 L 7.5625 0 Z M 4.546875 -3.703125 "/></g></g></g><g fill="#000000" fill-opacity="1"><g transform="translate(231.216899, 191.496863)"><g><path d="M 8.40625 -1.75 L 8.40625 0 L 1.109375 0 L 1.109375 -9.421875 L 8.234375 -9.421875 L 8.234375 -7.671875 L 3.28125 -7.671875 L 3.28125 -5.625 L 7.65625 -5.625 L 7.65625 -3.921875 L 3.28125 -3.921875 L 3.28125 -1.75 Z M 8.40625 -1.75 "/></g></g></g><g fill="#000000" fill-opacity="1"><g transform="translate(244.892744, 191.496863)"><g><path d="M 3.0625 -7.640625 L 0.046875 -7.640625 L 0.046875 -9.421875 L 8.265625 -9.421875 L 8.265625 -7.640625 L 5.25 -7.640625 L 5.25 0 L 3.0625 0 Z M 3.0625 -7.640625 "/></g></g></g><g fill="#000000" fill-opacity="1"><g transform="translate(148.743793, 265.21944)"><g><path d="M 5.921875 -5.921875 L 5.921875 0 L 5.40625 0 L 1.59375 -4.8125 L 1.59375 0 L 0.96875 0 L 0.96875 -5.921875 L 1.484375 -5.921875 L 5.296875 -1.125 L 5.296875 -5.921875 Z M 5.921875 -5.921875 "/></g></g></g><g fill="#000000" fill-opacity="1"><g transform="translate(161.53399, 265.21944)"><g><path d="M 3.5625 0.046875 C 2.96875 0.046875 2.429688 -0.0820312 1.953125 -0.34375 C 1.484375 -0.601562 1.113281 -0.960938 0.84375 -1.421875 C 0.570312 -1.878906 0.4375 -2.394531 0.4375 -2.96875 C 0.4375 -3.53125 0.570312 -4.039062 0.84375 -4.5 C 1.113281 -4.957031 1.484375 -5.316406 1.953125 -5.578125 C 2.429688 -5.847656 2.96875 -5.984375 3.5625 -5.984375 C 4.144531 -5.984375 4.671875 -5.851562 5.140625 -5.59375 C 5.617188 -5.332031 5.992188 -4.96875 6.265625 -4.5 C 6.535156 -4.039062 6.671875 -3.53125 6.671875 -2.96875 C 6.671875 -2.394531 6.535156 -1.878906 6.265625 -1.421875 C 5.992188 -0.960938 5.617188 -0.601562 5.140625 -0.34375 C 4.671875 -0.0820312 4.144531 0.046875 3.5625 0.046875 Z M 3.5625 -0.515625 C 4.03125 -0.515625 4.453125 -0.617188 4.828125 -0.828125 C 5.203125 -1.035156 5.492188 -1.328125 5.703125 -1.703125 C 5.921875 -2.078125 6.03125 -2.5 6.03125 -2.96875 C 6.03125 -3.425781 5.921875 -3.84375 5.703125 -4.21875 C 5.492188 -4.59375 5.203125 -4.882812 4.828125 -5.09375 C 4.453125 -5.3125 4.03125 -5.421875 3.5625 -5.421875 C 3.09375 -5.421875 2.664062 -5.3125 2.28125 -5.09375 C 1.894531 -4.882812 1.59375 -4.59375 1.375 -4.21875 C 1.164062 -3.84375 1.0625 -3.425781 1.0625 -2.96875 C 1.0625 -2.5 1.164062 -2.078125 1.375 -1.703125 C 1.59375 -1.328125 1.894531 -1.035156 2.28125 -0.828125 C 2.664062 -0.617188 3.09375 -0.515625 3.5625 -0.515625 Z M 3.5625 -0.515625 "/></g></g></g><g fill="#000000" fill-opacity="1"><g transform="translate(174.544412, 265.21944)"><g/></g></g><g fill="#000000" fill-opacity="1"><g transform="translate(182.667446, 265.21944)"><g><path d="M 3.546875 0.046875 C 2.953125 0.046875 2.421875 -0.0820312 1.953125 -0.34375 C 1.484375 -0.601562 1.113281 -0.960938 0.84375 -1.421875 C 0.570312 -1.878906 0.4375 -2.394531 0.4375 -2.96875 C 0.4375 -3.53125 0.570312 -4.039062 0.84375 -4.5 C 1.113281 -4.96875 1.484375 -5.332031 1.953125 -5.59375 C 2.429688 -5.851562 2.960938 -5.984375 3.546875 -5.984375 C 3.984375 -5.984375 4.390625 -5.90625 4.765625 -5.75 C 5.140625 -5.601562 5.457031 -5.390625 5.71875 -5.109375 L 5.3125 -4.71875 C 4.851562 -5.1875 4.269531 -5.421875 3.5625 -5.421875 C 3.09375 -5.421875 2.664062 -5.3125 2.28125 -5.09375 C 1.894531 -4.882812 1.59375 -4.59375 1.375 -4.21875 C 1.164062 -3.84375 1.0625 -3.425781 1.0625 -2.96875 C 1.0625 -2.5 1.164062 -2.078125 1.375 -1.703125 C 1.59375 -1.335938 1.894531 -1.046875 2.28125 -0.828125 C 2.664062 -0.617188 3.09375 -0.515625 3.5625 -0.515625 C 4.269531 -0.515625 4.851562 -0.75 5.3125 -1.21875 L 5.71875 -0.828125 C 5.457031 -0.535156 5.140625 -0.316406 4.765625 -0.171875 C 4.390625 -0.0234375 3.984375 0.046875 3.546875 0.046875 Z M 3.546875 0.046875 "/></g></g></g><g fill="#000000" fill-opacity="1"><g transform="translate(194.661429, 265.21944)"><g><path d="M 3.5625 0.046875 C 2.96875 0.046875 2.429688 -0.0820312 1.953125 -0.34375 C 1.484375 -0.601562 1.113281 -0.960938 0.84375 -1.421875 C 0.570312 -1.878906 0.4375 -2.394531 0.4375 -2.96875 C 0.4375 -3.53125 0.570312 -4.039062 0.84375 -4.5 C 1.113281 -4.957031 1.484375 -5.316406 1.953125 -5.578125 C 2.429688 -5.847656 2.96875 -5.984375 3.5625 -5.984375 C 4.144531 -5.984375 4.671875 -5.851562 5.140625 -5.59375 C 5.617188 -5.332031 5.992188 -4.96875 6.265625 -4.5 C 6.535156 -4.039062 6.671875 -3.53125 6.671875 -2.96875 C 6.671875 -2.394531 6.535156 -1.878906 6.265625 -1.421875 C 5.992188 -0.960938 5.617188 -0.601562 5.140625 -0.34375 C 4.671875 -0.0820312 4.144531 0.046875 3.5625 0.046875 Z M 3.5625 -0.515625 C 4.03125 -0.515625 4.453125 -0.617188 4.828125 -0.828125 C 5.203125 -1.035156 5.492188 -1.328125 5.703125 -1.703125 C 5.921875 -2.078125 6.03125 -2.5 6.03125 -2.96875 C 6.03125 -3.425781 5.921875 -3.84375 5.703125 -4.21875 C 5.492188 -4.59375 5.203125 -4.882812 4.828125 -5.09375 C 4.453125 -5.3125 4.03125 -5.421875 3.5625 -5.421875 C 3.09375 -5.421875 2.664062 -5.3125 2.28125 -5.09375 C 1.894531 -4.882812 1.59375 -4.59375 1.375 -4.21875 C 1.164062 -3.84375 1.0625 -3.425781 1.0625 -2.96875 C 1.0625 -2.5 1.164062 -2.078125 1.375 -1.703125 C 1.59375 -1.328125 1.894531 -1.035156 2.28125 -0.828125 C 2.664062 -0.617188 3.09375 -0.515625 3.5625 -0.515625 Z M 3.5625 -0.515625 "/></g></g></g><g fill="#000000" fill-opacity="1"><g transform="translate(207.67185, 265.21944)"><g><path d="M 0.96875 -5.921875 L 3.375 -5.921875 C 4 -5.921875 4.550781 -5.796875 5.03125 -5.546875 C 5.519531 -5.296875 5.894531 -4.945312 6.15625 -4.5 C 6.425781 -4.050781 6.5625 -3.539062 6.5625 -2.96875 C 6.5625 -2.382812 6.425781 -1.867188 6.15625 -1.421875 C 5.894531 -0.972656 5.519531 -0.625 5.03125 -0.375 C 4.550781 -0.125 4 0 3.375 0 L 0.96875 0 Z M 3.34375 -0.546875 C 3.863281 -0.546875 4.316406 -0.644531 4.703125 -0.84375 C 5.097656 -1.050781 5.398438 -1.335938 5.609375 -1.703125 C 5.828125 -2.066406 5.9375 -2.488281 5.9375 -2.96875 C 5.9375 -3.4375 5.828125 -3.851562 5.609375 -4.21875 C 5.398438 -4.582031 5.097656 -4.867188 4.703125 -5.078125 C 4.316406 -5.285156 3.863281 -5.390625 3.34375 -5.390625 L 1.59375 -5.390625 L 1.59375 -0.546875 Z M 3.34375 -0.546875 "/></g></g></g><g fill="#000000" fill-opacity="1"><g transform="translate(220.572153, 265.21944)"><g><path d="M 5.15625 -0.546875 L 5.15625 0 L 0.96875 0 L 0.96875 -5.921875 L 5.03125 -5.921875 L 5.03125 -5.390625 L 1.59375 -5.390625 L 1.59375 -3.28125 L 4.65625 -3.28125 L 4.65625 -2.75 L 1.59375 -2.75 L 1.59375 -0.546875 Z M 5.15625 -0.546875 "/></g></g></g><g fill="#000000" fill-opacity="1"><g transform="translate(154.809759, 276.513167)"><g><path d="M 5.921875 -5.921875 L 5.921875 0 L 5.40625 0 L 1.59375 -4.8125 L 1.59375 0 L 0.96875 0 L 0.96875 -5.921875 L 1.484375 -5.921875 L 5.296875 -1.125 L 5.296875 -5.921875 Z M 5.921875 -5.921875 "/></g></g></g><g fill="#000000" fill-opacity="1"><g transform="translate(167.599956, 276.513167)"><g><path d="M 3.5625 0.046875 C 2.96875 0.046875 2.429688 -0.0820312 1.953125 -0.34375 C 1.484375 -0.601562 1.113281 -0.960938 0.84375 -1.421875 C 0.570312 -1.878906 0.4375 -2.394531 0.4375 -2.96875 C 0.4375 -3.53125 0.570312 -4.039062 0.84375 -4.5 C 1.113281 -4.957031 1.484375 -5.316406 1.953125 -5.578125 C 2.429688 -5.847656 2.96875 -5.984375 3.5625 -5.984375 C 4.144531 -5.984375 4.671875 -5.851562 5.140625 -5.59375 C 5.617188 -5.332031 5.992188 -4.96875 6.265625 -4.5 C 6.535156 -4.039062 6.671875 -3.53125 6.671875 -2.96875 C 6.671875 -2.394531 6.535156 -1.878906 6.265625 -1.421875 C 5.992188 -0.960938 5.617188 -0.601562 5.140625 -0.34375 C 4.671875 -0.0820312 4.144531 0.046875 3.5625 0.046875 Z M 3.5625 -0.515625 C 4.03125 -0.515625 4.453125 -0.617188 4.828125 -0.828125 C 5.203125 -1.035156 5.492188 -1.328125 5.703125 -1.703125 C 5.921875 -2.078125 6.03125 -2.5 6.03125 -2.96875 C 6.03125 -3.425781 5.921875 -3.84375 5.703125 -4.21875 C 5.492188 -4.59375 5.203125 -4.882812 4.828125 -5.09375 C 4.453125 -5.3125 4.03125 -5.421875 3.5625 -5.421875 C 3.09375 -5.421875 2.664062 -5.3125 2.28125 -5.09375 C 1.894531 -4.882812 1.59375 -4.59375 1.375 -4.21875 C 1.164062 -3.84375 1.0625 -3.425781 1.0625 -2.96875 C 1.0625 -2.5 1.164062 -2.078125 1.375 -1.703125 C 1.59375 -1.328125 1.894531 -1.035156 2.28125 -0.828125 C 2.664062 -0.617188 3.09375 -0.515625 3.5625 -0.515625 Z M 3.5625 -0.515625 "/></g></g></g><g fill="#000000" fill-opacity="1"><g transform="translate(180.610378, 276.513167)"><g/></g></g><g fill="#000000" fill-opacity="1"><g transform="translate(188.733412, 276.513167)"><g><path d="M 4.703125 -3.0625 C 5.085938 -2.976562 5.382812 -2.804688 5.59375 -2.546875 C 5.8125 -2.296875 5.921875 -1.972656 5.921875 -1.578125 C 5.921875 -1.078125 5.734375 -0.6875 5.359375 -0.40625 C 4.984375 -0.132812 4.425781 0 3.6875 0 L 0.96875 0 L 0.96875 -5.921875 L 3.515625 -5.921875 C 4.179688 -5.921875 4.695312 -5.785156 5.0625 -5.515625 C 5.425781 -5.253906 5.609375 -4.882812 5.609375 -4.40625 C 5.609375 -4.070312 5.523438 -3.789062 5.359375 -3.5625 C 5.203125 -3.34375 4.984375 -3.175781 4.703125 -3.0625 Z M 1.59375 -5.40625 L 1.59375 -3.265625 L 3.484375 -3.265625 C 3.960938 -3.265625 4.332031 -3.351562 4.59375 -3.53125 C 4.851562 -3.71875 4.984375 -3.988281 4.984375 -4.34375 C 4.984375 -4.6875 4.851562 -4.945312 4.59375 -5.125 C 4.332031 -5.3125 3.960938 -5.40625 3.484375 -5.40625 Z M 3.6875 -0.515625 C 4.21875 -0.515625 4.617188 -0.601562 4.890625 -0.78125 C 5.160156 -0.96875 5.296875 -1.253906 5.296875 -1.640625 C 5.296875 -2.378906 4.757812 -2.75 3.6875 -2.75 L 1.59375 -2.75 L 1.59375 -0.515625 Z M 3.6875 -0.515625 "/></g></g></g><g fill="#000000" fill-opacity="1"><g transform="translate(201.023855, 276.513167)"><g><path d="M 3.359375 0.046875 C 2.585938 0.046875 1.988281 -0.171875 1.5625 -0.609375 C 1.132812 -1.046875 0.921875 -1.6875 0.921875 -2.53125 L 0.921875 -5.921875 L 1.546875 -5.921875 L 1.546875 -2.5625 C 1.546875 -1.875 1.695312 -1.359375 2 -1.015625 C 2.3125 -0.679688 2.765625 -0.515625 3.359375 -0.515625 C 3.953125 -0.515625 4.398438 -0.679688 4.703125 -1.015625 C 5.015625 -1.359375 5.171875 -1.875 5.171875 -2.5625 L 5.171875 -5.921875 L 5.78125 -5.921875 L 5.78125 -2.53125 C 5.78125 -1.6875 5.566406 -1.046875 5.140625 -0.609375 C 4.710938 -0.171875 4.117188 0.046875 3.359375 0.046875 Z M 3.359375 0.046875 "/></g></g></g><g fill="#000000" fill-opacity="1"><g transform="translate(213.636176, 276.513167)"><g><path d="M 5.140625 -2.96875 L 5.734375 -2.96875 L 5.734375 -0.703125 C 5.460938 -0.460938 5.132812 -0.273438 4.75 -0.140625 C 4.375 -0.015625 3.976562 0.046875 3.5625 0.046875 C 2.96875 0.046875 2.429688 -0.0820312 1.953125 -0.34375 C 1.484375 -0.601562 1.113281 -0.960938 0.84375 -1.421875 C 0.570312 -1.878906 0.4375 -2.394531 0.4375 -2.96875 C 0.4375 -3.53125 0.570312 -4.039062 0.84375 -4.5 C 1.113281 -4.96875 1.484375 -5.332031 1.953125 -5.59375 C 2.429688 -5.851562 2.972656 -5.984375 3.578125 -5.984375 C 4.023438 -5.984375 4.4375 -5.910156 4.8125 -5.765625 C 5.195312 -5.617188 5.519531 -5.40625 5.78125 -5.125 L 5.390625 -4.71875 C 4.921875 -5.1875 4.320312 -5.421875 3.59375 -5.421875 C 3.113281 -5.421875 2.679688 -5.3125 2.296875 -5.09375 C 1.910156 -4.882812 1.609375 -4.59375 1.390625 -4.21875 C 1.171875 -3.84375 1.0625 -3.425781 1.0625 -2.96875 C 1.0625 -2.5 1.171875 -2.078125 1.390625 -1.703125 C 1.609375 -1.335938 1.910156 -1.046875 2.296875 -0.828125 C 2.679688 -0.617188 3.113281 -0.515625 3.59375 -0.515625 C 4.195312 -0.515625 4.710938 -0.664062 5.140625 -0.96875 Z M 5.140625 -2.96875 "/></g></g></g></svg>